<svg width="16" height="16" viewBox="0 0 16 16" fill="none" xmlns="http://www.w3.org/2000/svg">
    <path d="M15.7573 8.00001C15.7573 12.2844 12.2841 15.7576 7.99976 15.7576C3.71537 15.7576 0.242188 12.2844 0.242188 8.00001C0.242188 3.71562 3.71537 0.242432 7.99976 0.242432C12.2841 0.242432 15.7573 3.71562 15.7573 8.00001ZM1.65747 8.00001C1.65747 11.5028 4.49701 14.3423 7.99976 14.3423C11.5025 14.3423 14.3421 11.5028 14.3421 8.00001C14.3421 4.49726 11.5025 1.65772 7.99976 1.65772C4.49701 1.65772 1.65747 4.49726 1.65747 8.00001Z" fill="#ACB6BF"/>
    <path fill-rule="evenodd" clip-rule="evenodd" d="M8 0.484848C3.8495 0.484848 0.484848 3.8495 0.484848 8C0.484848 12.1505 3.8495 15.5152 8 15.5152C12.1505 15.5152 15.5152 12.1505 15.5152 8C15.5152 3.8495 12.1505 0.484848 8 0.484848ZM0 8C0 3.58172 3.58172 0 8 0C12.4183 0 16 3.58172 16 8C16 12.4183 12.4183 16 8 16C3.58172 16 0 12.4183 0 8ZM1.41529 8C1.41529 4.36336 4.36336 1.41529 8 1.41529C11.6366 1.41529 14.5847 4.36336 14.5847 8C14.5847 11.6366 11.6366 14.5847 8 14.5847C4.36336 14.5847 1.41529 11.6366 1.41529 8ZM8 1.90013C4.63114 1.90013 1.90013 4.63114 1.90013 8C1.90013 11.3689 4.63114 14.0999 8 14.0999C11.3689 14.0999 14.0999 11.3689 14.0999 8C14.0999 4.63114 11.3689 1.90013 8 1.90013Z" fill="#ACB6BF"/>
    <path d="M7.61466 4.12109C7.2919 4.12109 7.03027 4.39399 7.03027 4.73064V8.67237C7.03027 8.67237 7.03027 8.83128 7.10432 8.95081C7.15387 9.05218 7.23113 9.14026 7.33264 9.20139L10.0324 10.8272C10.3119 10.9955 10.6693 10.8956 10.8307 10.6041C10.992 10.3125 10.8963 9.93973 10.6168 9.77144L8.19905 8.31548V4.73064C8.19905 4.394 7.93742 4.12109 7.61466 4.12109Z" fill="#ACB6BF"/>
    <path fill-rule="evenodd" clip-rule="evenodd" d="M6.78809 4.73087C6.78809 4.27007 7.14873 3.87891 7.6149 3.87891C8.08108 3.87891 8.44171 4.27008 8.44171 4.73087V8.17872L10.7421 9.56399C11.1373 9.80194 11.2653 10.3201 11.043 10.7217C10.8176 11.129 10.3091 11.2769 9.90759 11.0352L7.20781 9.40931C7.06764 9.32489 6.96102 9.20458 6.8919 9.06785C6.83629 8.9737 6.81211 8.87464 6.80074 8.80747C6.79454 8.77082 6.79141 8.73912 6.78982 8.716C6.78901 8.70435 6.78858 8.69465 6.78835 8.68732L6.78813 8.6781L6.78809 8.67487L6.78809 8.67362C6.78809 8.67356 6.78809 8.67261 7.03051 8.67261H6.78809V4.73087ZM7.27296 8.67202C7.27295 8.67167 7.27296 8.67222 7.27296 8.67202L7.27352 8.68262C7.27423 8.69302 7.27574 8.70852 7.27879 8.72654C7.28549 8.76612 7.29689 8.80119 7.31064 8.82339L7.31702 8.83369L7.32234 8.84457C7.35253 8.90632 7.39861 8.95822 7.45794 8.99396M7.45794 8.99396L10.1577 10.6198C10.1577 10.6198 10.1577 10.6198 10.1577 10.6198C10.3152 10.7146 10.5215 10.6627 10.6188 10.4869C10.7192 10.3055 10.6558 10.078 10.492 9.97936L7.95687 8.45272V4.73087C7.95687 4.51839 7.79424 4.36375 7.6149 4.36375C7.43556 4.36375 7.27293 4.51838 7.27293 4.73087L7.27296 8.67202" fill="#ACB6BF"/>
</svg>
