<svg width="30" height="40" viewBox="0 0 30 40" fill="none" xmlns="http://www.w3.org/2000/svg">
    <path d="M24.375 39.9999C23.3394 39.9999 22.5001 39.1047 22.5001 38.0001V32.0001C22.5001 30.8955 23.3394 30.0003 24.375 30.0003C25.4105 30.0003 26.2498 30.8955 26.2498 32.0001V38.0001C26.2504 39.1041 25.4105 39.9999 24.375 39.9999ZM16.8751 39.9999H7.87505C5.5536 39.9999 4.27446 39.9999 3.07127 39.3459C2.00589 38.7675 1.15594 37.8603 0.613129 36.7239C0 35.4405 0 34.0761 0 31.5999V8.39983C0 5.92364 0 4.55925 0.613129 3.27585C1.15594 2.13946 2.00589 1.23286 3.07127 0.653866C4.27446 -0.000130444 5.5536 -0.000130441 7.87505 -0.000130441H16.8616C16.9094 -0.000730438 16.9584 0.00106955 17.0067 0.00466953C17.0084 0.00466953 17.0095 0.00466953 17.0107 0.00466953C17.1946 0.0184695 17.3712 0.0610693 17.5366 0.127669C17.779 0.224868 18.0063 0.377268 18.2009 0.585467L29.451 12.5854C29.6462 12.7936 29.7891 13.036 29.8802 13.294C29.9426 13.4704 29.982 13.6588 29.9955 13.855C29.9955 13.8556 29.9955 13.8562 29.9955 13.8568C29.9955 13.8574 29.9955 13.8586 29.9955 13.8592C29.9989 13.9108 30.0006 13.9624 30 14.014V19C30 20.1046 29.1607 20.9998 28.1252 20.9998C27.0896 20.9998 26.2504 20.1046 26.2504 19V16H19.8749C18.6554 16 17.8494 16 17.0472 15.5638C16.3374 15.178 15.7703 14.5732 15.4087 13.816C14.9997 12.9604 14.9997 12.1006 14.9997 10.7998V4.00005H7.87505C6.24885 4.00005 5.17503 4.00005 4.77397 4.21785C4.41903 4.41105 4.13553 4.71285 3.9544 5.09204C3.75021 5.51984 3.75021 6.66584 3.75021 8.39983V31.5999C3.75021 33.3345 3.75021 34.4799 3.9544 34.9077C4.13553 35.2869 4.41847 35.5887 4.7734 35.7819C5.17503 35.9997 6.24885 35.9997 7.87505 35.9997H16.8751C17.9107 35.9997 18.7499 36.8949 18.7499 37.9995C18.7499 39.1041 17.9107 39.9999 16.8751 39.9999ZM18.7707 11.9782C18.998 12.0004 19.4429 12.0004 19.8749 12.0004H23.5981L18.7499 6.82903V10.7998C18.7499 11.2612 18.7499 11.7352 18.7707 11.9782ZM16.8751 31.9995H9.37525C8.33968 31.9995 7.50042 31.1043 7.50042 29.9997C7.50042 28.8951 8.33968 27.9999 9.37525 27.9999H16.8751C17.9107 27.9999 18.7499 28.8951 18.7499 29.9997C18.7499 31.1043 17.9107 31.9995 16.8751 31.9995ZM24.3941 27.9999H24.3755C23.34 27.9999 22.5007 27.1047 22.5007 26.0001C22.5007 24.8955 23.3394 23.9997 24.375 23.9997H24.3935C25.4291 23.9997 26.2684 24.8949 26.2684 25.9995C26.2684 27.1041 25.4297 27.9999 24.3941 27.9999ZM16.8751 23.9997H9.37525C8.33968 23.9997 7.50042 23.1046 7.50042 22C7.50042 20.8954 8.33968 20.0002 9.37525 20.0002H16.8751C17.9107 20.0002 18.7499 20.8954 18.7499 22C18.7499 23.1046 17.9107 23.9997 16.8751 23.9997ZM11.2501 16H9.37525C8.33968 16 7.50042 15.1048 7.50042 14.0002C7.50042 12.8956 8.33968 11.9998 9.37525 11.9998H11.2501C12.2856 11.9998 13.1249 12.895 13.1249 13.9996C13.1249 15.1042 12.2856 16 11.2501 16Z" fill="#ACB6BF"/>
</svg>
