<svg width="16" height="20" viewBox="0 0 16 20" fill="none" xmlns="http://www.w3.org/2000/svg">
    <path fill-rule="evenodd" clip-rule="evenodd" d="M16 8.20006C16 3.69803 12.4446 3.10821e-07 7.99995 6.99387e-07C3.55526 1.08795e-06 -0.000108396 3.69803 -0.000108002 8.20006C-0.000107801 10.4966 1.01396 12.5069 2.38692 14.3406C3.53287 15.8711 4.99973 17.3667 6.45891 18.8546C6.7346 19.1357 7.01002 19.4165 7.28295 19.6972C7.47123 19.8909 7.72985 20.0001 7.99995 20.0001C8.27005 20.0001 8.52866 19.8909 8.71695 19.6972C8.98987 19.4165 9.26529 19.1357 9.54098 18.8546C11.0002 17.3667 12.467 15.8711 13.613 14.3406C14.9859 12.5069 16 10.4966 16 8.20006ZM7.99995 2.00001C11.2873 2.00001 14 4.74912 14 8.20006C14 9.87997 13.264 11.4697 12.012 13.1419C10.9533 14.5558 9.59839 15.9382 8.13748 17.4288C8.09174 17.4755 8.04589 17.5222 7.99995 17.5691C7.954 17.5222 7.90815 17.4755 7.86241 17.4288C6.4015 15.9382 5.04657 14.5558 3.9879 13.1419C2.73585 11.4697 1.99991 9.87997 1.99991 8.20006C1.99991 4.74912 4.71258 2.00001 7.99995 2.00001Z" fill="#ACB6BF"/>
    <path fill-rule="evenodd" clip-rule="evenodd" d="M12 8.00003C12 5.79089 10.2092 4 7.99997 4C5.79076 4 3.99995 5.79089 3.99995 8.00003C3.99995 10.2092 5.79077 12.0001 7.99997 12.0001C10.2092 12.0001 12 10.2092 12 8.00003ZM7.99997 6.00001C9.10459 6.00001 9.99999 6.89544 9.99999 8.00003C9.99999 9.10465 9.1046 10 7.99997 10C6.89535 10 5.99996 9.10465 5.99996 8.00003C5.99996 6.89544 6.89536 6.00001 7.99997 6.00001Z" fill="#ACB6BF"/>
</svg>
