<svg width="27" height="27" viewBox="0 0 27 27" fill="none" xmlns="http://www.w3.org/2000/svg">
    <path fill-rule="evenodd" clip-rule="evenodd" d="M13.5 0C6.04416 0 0 6.04416 0 13.5C0 20.9558 6.04416 27 13.5 27C20.9558 27 27 20.9558 27 13.5C27 6.04416 20.9558 0 13.5 0ZM8.25058 9.00006C8.1139 9.00006 7.98576 9.03662 7.8754 9.1005C7.90109 9.11537 7.92618 9.13192 7.95052 9.15017L12.6007 12.6378L12.6007 12.6378C13.1341 13.0378 13.8674 13.0378 14.4008 12.6378L14.4008 12.6378L19.051 9.15014C19.0753 9.13188 19.1004 9.11532 19.1261 9.10045C19.0158 9.03661 18.8877 9.00006 18.751 9.00006H8.25058ZM7.50055 17.2504V10.6878L11.7007 13.8378L11.7007 13.8378C12.7674 14.6379 14.2341 14.6379 15.3008 13.8378L15.3008 13.8378L19.501 10.6877V17.2504C19.501 17.6646 19.1652 18.0004 18.751 18.0004H8.25058C7.83635 18.0004 7.50055 17.6646 7.50055 17.2504ZM6.00049 9.75009C6.00049 8.5074 7.00789 7.5 8.25058 7.5H18.751C19.9937 7.5 21.0011 8.5074 21.0011 9.75009V17.2504C21.0011 18.4931 19.9937 19.5005 18.751 19.5005H8.25058C7.00789 19.5005 6.00049 18.4931 6.00049 17.2504V9.75009Z" fill="black"/>
</svg>
