<svg width="16" height="16" viewBox="0 0 16 16" fill="none" xmlns="http://www.w3.org/2000/svg">
    <path d="M0.242188 7.46326C0.242231 7.66899 0.323992 7.86628 0.469487 8.01173L7.98821 15.5305C8.13369 15.6759 8.33097 15.7576 8.53668 15.7576C8.74238 15.7576 8.93966 15.6759 9.08514 15.5305L15.5302 9.08616C15.6756 8.94069 15.7573 8.7434 15.7573 8.5377C15.7573 8.33199 15.6756 8.13471 15.5302 7.98923L8.01148 0.469731C7.86603 0.324237 7.66874 0.242476 7.46302 0.242432H1.01795C0.812207 0.242432 0.614888 0.324164 0.469404 0.469648C0.32392 0.615132 0.242188 0.812452 0.242188 1.0182V7.46326ZM1.79372 1.79396H7.14185L13.8848 8.53692L8.53668 13.8851L1.79372 7.14209V1.79396ZM6.38858 4.24073C6.60101 4.45316 6.74568 4.72381 6.80429 5.01846C6.86291 5.3131 6.83283 5.61852 6.71786 5.89607C6.6029 6.17362 6.40821 6.41085 6.15842 6.57776C5.90863 6.74466 5.61495 6.83375 5.31453 6.83375C5.01411 6.83375 4.72044 6.74466 4.47065 6.57776C4.22086 6.41085 4.02617 6.17362 3.9112 5.89607C3.79624 5.61852 3.76616 5.3131 3.82477 5.01846C3.88338 4.72381 4.02805 4.45316 4.24048 4.24073C4.38148 4.09959 4.54891 3.98763 4.7332 3.91124C4.91749 3.83485 5.11504 3.79553 5.31453 3.79553C5.51403 3.79553 5.71157 3.83485 5.89586 3.91124C6.08016 3.98763 6.24759 4.09959 6.38858 4.24073Z" fill="#ACB6BF"/>
    <path fill-rule="evenodd" clip-rule="evenodd" d="M0.298221 0.298221C0.489169 0.107273 0.748149 0 1.01819 0H7.46325C7.73326 5.76684e-05 7.99225 0.107362 8.18315 0.298313C8.18314 0.298307 8.18316 0.298318 8.18315 0.298313L15.7019 7.81781C15.8928 8.00875 16 8.2677 16 8.53769C16 8.80768 15.8928 9.06661 15.7019 9.25755L9.25679 15.7019C9.06585 15.8928 8.8069 16 8.53691 16C8.26693 16 8.00799 15.8928 7.81705 15.7019L0.29833 8.18317C0.298321 8.18316 0.298338 8.18317 0.29833 8.18317C0.107385 7.99226 5.76684e-05 7.73331 0 7.4633V1.01819C0 0.748149 0.107273 0.489169 0.298221 0.298221ZM1.01819 0.484848C0.876739 0.484848 0.741082 0.54104 0.641061 0.641061C0.54104 0.741082 0.484848 0.876739 0.484848 1.01819V7.4632C0.484848 7.46318 0.484848 7.46322 0.484848 7.4632C0.484892 7.60462 0.541102 7.74029 0.641118 7.84027L8.15984 15.359C8.15983 15.359 8.15985 15.359 8.15984 15.359C8.25985 15.459 8.3955 15.5152 8.53691 15.5152C8.67834 15.5152 8.81397 15.459 8.91399 15.359L15.359 8.91476C15.359 8.91477 15.359 8.91475 15.359 8.91476C15.459 8.81475 15.5152 8.6791 15.5152 8.53769C15.5152 8.39627 15.459 8.26065 15.359 8.16063C15.359 8.16063 15.359 8.16064 15.359 8.16063L7.84029 0.641135C7.74031 0.541119 7.60467 0.484892 7.46325 0.484848C7.46324 0.484848 7.46327 0.484848 7.46325 0.484848H1.01819ZM1.55153 1.55153H7.2425L14.2279 8.53691L8.53691 14.2279L1.55153 7.2425V1.55153ZM2.03638 2.03638V7.04167L8.53691 13.5422L13.5422 8.53691L7.04167 2.03638H2.03638ZM5.31477 4.03795C5.14713 4.03795 4.98113 4.07099 4.82627 4.13518C4.6714 4.19937 4.53071 4.29346 4.41223 4.41206C4.2337 4.59058 4.11203 4.81812 4.06277 5.06574C4.01352 5.31337 4.03879 5.57004 4.13541 5.80329C4.23203 6.03655 4.39564 6.23592 4.60557 6.37618C4.81549 6.51645 5.0623 6.59132 5.31477 6.59132C5.56724 6.59132 5.81405 6.51645 6.02397 6.37618C6.2339 6.23592 6.39751 6.03655 6.49413 5.80329C6.59074 5.57003 6.61602 5.31337 6.56677 5.06574C6.51751 4.81812 6.39593 4.59067 6.2174 4.41214C6.09892 4.29354 5.95814 4.19937 5.80327 4.13518C5.64841 4.07099 5.48241 4.03795 5.31477 4.03795ZM4.64061 3.68728C4.85433 3.5987 5.08342 3.5531 5.31477 3.5531C5.54612 3.5531 5.77521 3.5987 5.98893 3.68728C6.20261 3.77586 6.39674 3.90567 6.56024 4.0693C6.80657 4.31563 6.97433 4.62948 7.0423 4.97115C7.11026 5.31283 7.07538 5.66698 6.94207 5.98883C6.80876 6.31068 6.583 6.58577 6.29334 6.77932C6.00368 6.97286 5.66314 7.07617 5.31477 7.07617C4.9664 7.07617 4.62586 6.97286 4.3362 6.77932C4.04654 6.58577 3.82078 6.31068 3.68747 5.98883C3.55416 5.66698 3.51928 5.31283 3.58724 4.97115C3.6552 4.62952 3.82293 4.31571 4.06922 4.06939C4.06919 4.06942 4.06924 4.06936 4.06922 4.06939" fill="#ACB6BF"/>
</svg>
