<svg width="27" height="27" viewBox="0 0 27 27" fill="none" xmlns="http://www.w3.org/2000/svg">
    <path fill-rule="evenodd" clip-rule="evenodd" d="M27 13.5C27 20.9558 20.9558 27 13.5 27C6.04415 27 0 20.9558 0 13.5C0 6.04415 6.04415 0 13.5 0C20.9558 0 27 6.04415 27 13.5ZM13.9838 9.9663C12.6708 10.5124 10.0464 11.6428 6.1109 13.3575C5.47183 13.6116 5.13706 13.8602 5.10659 14.1033C5.05507 14.5142 5.56957 14.676 6.27018 14.8962C6.36548 14.9263 6.46423 14.9573 6.56545 14.9902C7.25474 15.2143 8.18194 15.4764 8.66397 15.4867C9.1012 15.4962 9.58922 15.316 10.128 14.946C13.8051 12.4639 15.7032 11.2093 15.8223 11.1822C15.9065 11.1632 16.0229 11.1392 16.1019 11.2093C16.1808 11.2795 16.1731 11.4123 16.1647 11.448C16.1137 11.6652 14.0941 13.5429 13.049 14.5145C12.7232 14.8174 12.4921 15.0322 12.4449 15.0813C12.339 15.1913 12.2311 15.2953 12.1275 15.3952C11.4872 16.0125 11.0069 16.4754 12.1541 17.2314C12.7054 17.5947 13.1465 17.895 13.5866 18.1947C14.0672 18.5221 14.5466 18.8486 15.1668 19.2552C15.3249 19.3588 15.4757 19.4663 15.6228 19.5711C16.1821 19.9699 16.6847 20.3281 17.3054 20.2709C17.6662 20.2377 18.0388 19.8986 18.228 18.887C18.6752 16.4961 19.5543 11.3158 19.7575 9.1811C19.7754 8.99407 19.753 8.75472 19.735 8.64965C19.717 8.54458 19.6794 8.39487 19.5428 8.28405C19.3811 8.15281 19.1314 8.12513 19.0197 8.12709C18.5119 8.13605 17.7329 8.40692 13.9838 9.9663Z" fill="black"/>
</svg>
