<svg width="27" height="30" viewBox="0 0 27 30" fill="none" xmlns="http://www.w3.org/2000/svg">
    <path d="M13.5 0C6.03 0 0 6.28125 0 14.0625C0 17.25 0.99 20.25 2.88 22.6875L0.99 28.6875C0.9 29.0625 0.99 29.4375 1.26 29.7188C1.35 29.9062 1.62 30 1.8 30C1.89 30 2.07 30 2.16 29.9062L8.37 27C9.99 27.75 11.7 28.125 13.5 28.125C20.97 28.125 27 21.8438 27 14.0625C27 6.28125 20.97 0 13.5 0ZM21.33 19.2188C20.97 20.3438 19.62 21.2812 18.45 21.4688C18.18 21.5625 17.91 21.5625 17.55 21.5625C16.83 21.5625 15.75 21.375 13.86 20.5312C11.7 19.5938 9.54 17.625 7.83 15.0938V15C7.29 14.1562 6.3 12.5625 6.3 10.875C6.3 8.8125 7.29 7.78125 7.65 7.3125C8.1 6.84375 8.73 6.5625 9.45 6.5625C9.63 6.5625 9.72 6.5625 9.9 6.5625C10.53 6.5625 10.98 6.75 11.43 7.6875L11.79 8.4375C12.06 9.1875 12.42 10.0312 12.51 10.125C12.78 10.6875 12.78 11.1562 12.51 11.625C12.42 11.9062 12.24 12.0938 12.06 12.2812C11.97 12.4688 11.88 12.5625 11.79 12.5625C11.7 12.6562 11.7 12.6562 11.61 12.75C11.88 13.2188 12.42 14.0625 13.14 14.7188C14.22 15.75 15.03 16.0312 15.48 16.2188C15.66 16.0312 15.84 15.6562 16.11 15.375L16.2 15.1875C16.65 14.5313 17.37 14.3438 18.09 14.625C18.45 14.8125 20.43 15.75 20.43 15.75L20.61 15.8438C20.88 16.0312 21.24 16.125 21.42 16.5C21.78 17.3438 21.51 18.5625 21.33 19.2188Z" fill="black"/>
</svg>
