<svg width="27" height="27" viewBox="0 0 27 27" fill="none" xmlns="http://www.w3.org/2000/svg">
    <path fill-rule="evenodd" clip-rule="evenodd" d="M13.5 0C20.9558 0 27 6.04416 27 13.5C27 20.9558 20.9558 27 13.5 27C6.04416 27 0 20.9558 0 13.5C0 6.04416 6.04416 0 13.5 0ZM20.8388 8.98923C21.3819 8.98923 21.496 9.25151 21.3819 9.60844C21.1536 10.5899 18.9658 13.481 18.9658 13.481C18.7755 13.7665 18.6994 13.9093 18.9658 14.2305C19.0596 14.3537 19.2597 14.5376 19.4887 14.748C19.7241 14.9644 19.9902 15.2088 20.2024 15.444C20.9737 16.2581 21.555 16.9448 21.717 17.4181C21.865 17.893 21.6084 18.1336 21.0954 18.1336H19.2997C18.8187 18.1336 18.5765 17.8809 18.0531 17.3347C17.8313 17.1033 17.559 16.8191 17.1965 16.4791C16.1312 15.5154 15.6746 15.3905 15.4083 15.3905C15.0468 15.3905 14.9386 15.4866 14.9386 15.9679V17.4785C14.9386 17.893 14.7974 18.1336 13.656 18.1336C11.7536 18.1336 9.66291 17.0502 8.17903 15.0514C5.95321 12.1247 5.34441 9.91179 5.34441 9.46563C5.34441 9.2158 5.44703 8.98923 5.96011 8.98923H7.7558C8.21474 8.98923 8.38737 9.17764 8.55949 9.64409C9.43773 12.044 10.9185 14.1413 11.5273 14.1413C11.7556 14.1413 11.8603 14.0427 11.8603 13.4988V11.0182C11.8191 10.3121 11.5561 10.0068 11.3614 9.78059C11.2411 9.64091 11.1468 9.53143 11.1468 9.37642C11.1468 9.18802 11.3184 8.98923 11.6037 8.98923H14.4256C14.8061 8.98923 14.9386 9.18011 14.9386 9.60844V12.9456C14.9386 13.3025 15.1038 13.4274 15.218 13.4274C15.4463 13.4274 15.6365 13.3025 16.0551 12.9099C17.3487 11.5536 18.2619 9.46563 18.2619 9.46563C18.376 9.2158 18.5865 8.98923 19.0431 8.98923H20.8388Z" fill="black"/>
</svg>
