<svg width="20" height="20" viewBox="0 0 20 20" fill="none" xmlns="http://www.w3.org/2000/svg">
    <rect width="20" height="20" rx="7" fill="#B700FF"/>
    <path fill-rule="evenodd" clip-rule="evenodd" d="M10 4C10.5523 4 11 4.44772 11 5V15C11 15.5523 10.5523 16 10 16C9.44772 16 9 15.5523 9 15V5C9 4.44772 9.44772 4 10 4Z" fill="white"/>
    <path fill-rule="evenodd" clip-rule="evenodd" d="M16 10C16 10.5523 15.5523 11 15 11L5 11C4.44771 11 4 10.5523 4 10C4 9.44771 4.44771 9 5 9L15 9C15.5523 9 16 9.44772 16 10Z" fill="white"/>
</svg>
