<svg width="112" height="15" viewBox="0 0 112 15" fill="none" xmlns="http://www.w3.org/2000/svg">
    <path d="M2.856 0.991999H7.392L6.408 5.816H11.088L12.072 0.991999H16.608L13.992 14H9.456L10.368 9.44H5.688L4.776 14H0.24L2.856 0.991999ZM33.4116 0.991999L30.8196 14H26.4996L26.7636 12.776C25.7236 13.736 24.4676 14.216 22.9956 14.216C22.0356 14.216 21.1316 13.984 20.2836 13.52C19.4516 13.04 18.7796 12.352 18.2676 11.456C17.7556 10.56 17.4996 9.504 17.4996 8.288C17.4996 6.88 17.8116 5.608 18.4356 4.472C19.0756 3.32 19.9316 2.416 21.0036 1.76C22.0916 1.104 23.2756 0.776 24.5556 0.776C26.4436 0.776 27.7716 1.368 28.5396 2.552L28.8516 0.991999H33.4116ZM24.5796 10.544C25.4916 10.544 26.2356 10.208 26.8116 9.536C27.3876 8.864 27.6756 7.992 27.6756 6.92C27.6756 6.152 27.4516 5.544 27.0036 5.096C26.5716 4.648 25.9716 4.424 25.2036 4.424C24.2916 4.424 23.5476 4.76 22.9716 5.432C22.3956 6.104 22.1076 6.984 22.1076 8.072C22.1076 8.84 22.3236 9.448 22.7556 9.896C23.2036 10.328 23.8116 10.544 24.5796 10.544Z" fill="#B700FF"/>
    <path d="M47.8163 14V7.16L44.4803 12.848H42.5363L39.2963 7.064V14H35.1923V0.991999H39.9922L43.6163 7.784L47.6003 0.991999H51.8963L51.9203 14H47.8163ZM68.1729 7.52C68.1729 7.552 68.1489 7.928 68.1009 8.648H58.6449C58.8369 9.32 59.2049 9.84 59.7489 10.208C60.3089 10.56 61.0049 10.736 61.8369 10.736C62.4609 10.736 62.9969 10.648 63.4449 10.472C63.9089 10.296 64.3729 10.008 64.8369 9.608L67.2369 12.104C65.9729 13.512 64.1249 14.216 61.6929 14.216C60.1729 14.216 58.8369 13.928 57.6849 13.352C56.5329 12.776 55.6369 11.976 54.9969 10.952C54.3729 9.928 54.0609 8.768 54.0609 7.472C54.0609 6.192 54.3649 5.048 54.9729 4.04C55.5969 3.016 56.4529 2.216 57.5409 1.64C58.6289 1.064 59.8529 0.776 61.2129 0.776C62.5089 0.776 63.6849 1.048 64.7409 1.592C65.7969 2.12 66.6289 2.896 67.2369 3.92C67.8609 4.928 68.1729 6.128 68.1729 7.52ZM61.2369 4.016C60.5329 4.016 59.9409 4.216 59.4609 4.616C58.9969 5.016 58.7009 5.56 58.5729 6.248H63.9009C63.7729 5.56 63.4689 5.016 62.9889 4.616C62.5249 4.216 61.9409 4.016 61.2369 4.016ZM77.1109 14.216C75.6709 14.216 74.3829 13.928 73.2469 13.352C72.1109 12.776 71.2229 11.976 70.5829 10.952C69.9589 9.928 69.6469 8.768 69.6469 7.472C69.6469 6.176 69.9589 5.024 70.5829 4.016C71.2229 2.992 72.1109 2.2 73.2469 1.64C74.3829 1.064 75.6709 0.776 77.1109 0.776C78.5829 0.776 79.8549 1.096 80.9269 1.736C81.9989 2.36 82.7589 3.232 83.2069 4.352L79.6789 6.152C79.0869 4.984 78.2229 4.4 77.0869 4.4C76.2709 4.4 75.5909 4.672 75.0469 5.216C74.5189 5.76 74.2549 6.512 74.2549 7.472C74.2549 8.448 74.5189 9.216 75.0469 9.776C75.5909 10.32 76.2709 10.592 77.0869 10.592C78.2229 10.592 79.0869 10.008 79.6789 8.84L83.2069 10.64C82.7589 11.76 81.9989 12.64 80.9269 13.28C79.8549 13.904 78.5829 14.216 77.1109 14.216ZM96.777 4.616H92.601V14H88.065V4.616H83.865V0.991999H96.777V4.616ZM111.204 7.52C111.204 7.552 111.18 7.928 111.132 8.648H101.676C101.868 9.32 102.236 9.84 102.78 10.208C103.34 10.56 104.036 10.736 104.868 10.736C105.492 10.736 106.028 10.648 106.476 10.472C106.94 10.296 107.404 10.008 107.868 9.608L110.268 12.104C109.004 13.512 107.156 14.216 104.724 14.216C103.204 14.216 101.868 13.928 100.716 13.352C99.5642 12.776 98.6682 11.976 98.0282 10.952C97.4042 9.928 97.0922 8.768 97.0922 7.472C97.0922 6.192 97.3962 5.048 98.0042 4.04C98.6282 3.016 99.4842 2.216 100.572 1.64C101.66 1.064 102.884 0.776 104.244 0.776C105.54 0.776 106.716 1.048 107.772 1.592C108.828 2.12 109.66 2.896 110.268 3.92C110.892 4.928 111.204 6.128 111.204 7.52ZM104.268 4.016C103.564 4.016 102.972 4.216 102.492 4.616C102.028 5.016 101.732 5.56 101.604 6.248H106.932C106.804 5.56 106.5 5.016 106.02 4.616C105.556 4.216 104.972 4.016 104.268 4.016Z" fill="black"/>
</svg>
