<svg width="18" height="21" viewBox="0 0 18 21" fill="none" xmlns="http://www.w3.org/2000/svg">
    <path fill-rule="evenodd" clip-rule="evenodd" d="M16.7652 12.0132C16.7621 12.0088 16.7591 12.0044 16.756 12C16.2657 11.2899 16.0019 10.4462 16.0019 9.58064V7C16.0019 3.13401 12.8679 0 9.00194 0C5.13594 0 2.00194 3.13401 2.00194 7V9.58064C2.00194 10.4462 1.73818 11.2899 1.24785 12C1.2448 12.0044 1.24174 12.0088 1.23868 12.0132C1.20999 12.0544 1.18054 12.0952 1.15032 12.1355L1.00194 12.3333L0.201938 13.4C-0.29249 14.0592 0.177893 15 1.00194 15H2.33527H2.73496H2.75194H15.2519H15.2689H15.6686H17.0019C17.826 15 18.2964 14.0592 17.8019 13.4L17.0019 12.3333L16.8535 12.1355C16.8233 12.0952 16.7939 12.0544 16.7652 12.0132ZM13.417 12C13.1441 11.2279 13.0019 10.4102 13.0019 9.58064V7C13.0019 4.79086 11.2111 3 9.00194 3C6.7928 3 5.00194 4.79086 5.00194 7V9.58064C5.00194 10.4102 4.85982 11.2279 4.58684 12H13.417Z" fill="black"/>
    <path fill-rule="evenodd" clip-rule="evenodd" d="M7.50195 17H4.50195V17.5C4.50195 18.7114 5.23916 19.6227 6.04858 20.1623C6.8702 20.71 7.91879 21 9.00195 21C10.0851 21 11.1337 20.71 11.9553 20.1623C12.7647 19.6227 13.502 18.7114 13.502 17.5V17H10.502V17.4704C10.4876 17.4975 10.4385 17.5679 10.2912 17.6661C10.0269 17.8424 9.57539 18 9.00195 18C8.42852 18 7.97703 17.8424 7.71268 17.6661C7.56539 17.5679 7.51627 17.4975 7.50195 17.4704V17Z" fill="black"/>
</svg>
