<svg width="21" height="21" viewBox="0 0 21 21" fill="none" xmlns="http://www.w3.org/2000/svg">
    <path fill-rule="evenodd" clip-rule="evenodd" d="M17.0635 18.5H3.93915C3.23276 18.5 2.71113 17.803 2.97756 17.162C4.21374 14.198 7.11791 12.5 10.5008 12.5C13.8848 12.5 16.7889 14.198 18.0251 17.162C18.2915 17.803 17.7699 18.5 17.0635 18.5ZM6.41764 6.49999C6.41764 4.29399 8.24997 2.49999 10.5008 2.49999C12.7527 2.49999 14.584 4.29399 14.584 6.49999C14.584 8.70599 12.7527 10.5 10.5008 10.5C8.24997 10.5 6.41764 8.70599 6.41764 6.49999ZM20.4567 18.136C19.7145 14.777 17.3932 12.298 14.338 11.173C15.957 9.89597 16.9012 7.83094 16.5541 5.56994C16.152 2.94694 13.9246 0.847984 11.2358 0.541984C7.52419 0.118984 4.37605 2.94899 4.37605 6.49999C4.37605 8.38999 5.27027 10.074 6.66468 11.173C3.60841 12.298 1.28814 14.777 0.545001 18.136C0.27551 19.357 1.27998 20.5 2.55495 20.5H18.4467C19.7227 20.5 20.7272 19.357 20.4567 18.136Z" fill="black"/>
    <path fill-rule="evenodd" clip-rule="evenodd" d="M0.545001 18.136C1.2446 14.9738 3.34194 12.5915 6.13524 11.3845C6.30908 11.3094 6.48562 11.2389 6.66468 11.173C6.5159 11.0557 6.37281 10.9318 6.2359 10.8017C5.08962 9.71227 4.37605 8.18834 4.37605 6.49999C4.37605 2.94899 7.52419 0.118984 11.2358 0.541984C13.9246 0.847984 16.152 2.94694 16.5541 5.56994C16.8693 7.62327 16.1195 9.51498 14.7665 10.8016C14.6297 10.9317 14.4867 11.0557 14.338 11.173C14.517 11.2389 14.6935 11.3094 14.8673 11.3845C17.6598 12.5915 19.758 14.9738 20.4567 18.136C20.7272 19.357 19.7227 20.5 18.4467 20.5H2.55495C1.27998 20.5 0.27551 19.357 0.545001 18.136ZM20.9448 18.0278C21.2921 19.5955 20.0061 21 18.4467 21H2.55494C0.996214 21 -0.289145 19.5953 0.0567416 18.0282C0.776093 14.7767 2.90411 12.3073 5.73836 11.0138C4.58801 9.84703 3.87604 8.25666 3.87604 6.49999C3.87604 2.64237 7.29221 -0.410689 11.2923 0.0451916C14.1976 0.375833 16.6108 2.64062 17.0484 5.49416C17.3779 7.64111 16.6312 9.62615 15.264 11.0137C18.0975 12.3072 20.2263 14.7763 20.9448 18.0278ZM3.93914 18H17.0635C17.4636 18 17.674 17.6205 17.5635 17.3541C16.4169 14.6054 13.716 13 10.5008 13C7.28674 13 4.58582 14.6053 3.43921 17.354C3.32856 17.6204 3.53902 18 3.93914 18ZM2.97756 17.162C4.21374 14.198 7.11791 12.5 10.5008 12.5C13.8848 12.5 16.7889 14.198 18.0251 17.162C18.2915 17.803 17.7699 18.5 17.0635 18.5H3.93915C3.23276 18.5 2.71113 17.803 2.97756 17.162ZM10.5008 2.99999C8.51627 2.99999 6.91763 4.57987 6.91763 6.49999C6.91763 8.42012 8.51627 9.99999 10.5008 9.99999C12.4863 9.99999 14.084 8.4202 14.084 6.49999C14.084 4.57979 12.4863 2.99999 10.5008 2.99999ZM10.5008 2.49999C8.24997 2.49999 6.41764 4.29399 6.41764 6.49999C6.41764 8.70599 8.24997 10.5 10.5008 10.5C12.7527 10.5 14.584 8.70599 14.584 6.49999C14.584 4.29399 12.7527 2.49999 10.5008 2.49999Z" fill="black"/>
</svg>
