<svg width="18" height="18" viewBox="0 0 18 18" fill="none" xmlns="http://www.w3.org/2000/svg">
    <path fill-rule="evenodd" clip-rule="evenodd" d="M3 3.91301C2.76331 3.91301 2.57143 4.08821 2.57143 4.30432V15.2608C2.57143 15.4769 2.76331 15.6521 3 15.6521H15C15.2367 15.6521 15.4286 15.4769 15.4286 15.2608V4.30432C15.4286 4.08821 15.2367 3.91301 15 3.91301H3ZM0 4.30432C0 2.79154 1.34315 1.56519 3 1.56519H15C16.6569 1.56519 18 2.79154 18 4.30432V15.2608C18 16.7736 16.6569 18 15 18H3C1.34315 18 0 16.7736 0 15.2608V4.30432Z" fill="black"/>
    <path fill-rule="evenodd" clip-rule="evenodd" d="M12.3355 0C13.0456 0 13.6212 0.525579 13.6212 1.17391V4.30435C13.6212 4.95268 13.0456 5.47826 12.3355 5.47826C11.6254 5.47826 11.0498 4.95268 11.0498 4.30435V1.17391C11.0498 0.525579 11.6254 0 12.3355 0Z" fill="black"/>
    <path fill-rule="evenodd" clip-rule="evenodd" d="M5.66462 0C6.3747 0 6.95033 0.525579 6.95033 1.17391V4.30435C6.95033 4.95268 6.3747 5.47826 5.66462 5.47826C4.95454 5.47826 4.37891 4.95268 4.37891 4.30435V1.17391C4.37891 0.525579 4.95454 0 5.66462 0Z" fill="black"/>
    <path fill-rule="evenodd" clip-rule="evenodd" d="M0 7.43466C0 6.78632 0.575634 6.26074 1.28571 6.26074H16.7143C17.4244 6.26074 18 6.78632 18 7.43466C18 8.08299 17.4244 8.60857 16.7143 8.60857H1.28571C0.575634 8.60857 0 8.08299 0 7.43466Z" fill="black"/>
</svg>
