<svg width="30" height="30" viewBox="0 0 30 30" fill="none" xmlns="http://www.w3.org/2000/svg">
    <path fill-rule="evenodd" clip-rule="evenodd" d="M14 12.6667C13.2636 12.6667 12.6667 13.2636 12.6667 14V26C12.6667 26.7364 13.2636 27.3333 14 27.3333H26C26.7364 27.3333 27.3333 26.7364 27.3333 26V14C27.3333 13.2636 26.7364 12.6667 26 12.6667H14ZM10 14C10 11.7909 11.7909 10 14 10H26C28.2091 10 30 11.7909 30 14V26C30 28.2091 28.2091 30 26 30H14C11.7909 30 10 28.2091 10 26V14Z" fill="#ACB6BF"/>
    <path fill-rule="evenodd" clip-rule="evenodd" d="M4 2.66667C3.64638 2.66667 3.30724 2.80714 3.05719 3.05719C2.80714 3.30724 2.66667 3.64638 2.66667 4V16C2.66667 16.3536 2.80714 16.6928 3.05719 16.9428C3.30724 17.1929 3.64638 17.3333 4 17.3333H5.33333C6.06971 17.3333 6.66667 17.9303 6.66667 18.6667C6.66667 19.403 6.06971 20 5.33333 20H4C2.93913 20 1.92172 19.5786 1.17157 18.8284C0.421427 18.0783 0 17.0609 0 16V4C0 2.93913 0.421427 1.92172 1.17157 1.17157C1.92172 0.421427 2.93913 0 4 0H16C17.0609 0 18.0783 0.421427 18.8284 1.17157C19.5786 1.92172 20 2.93913 20 4V5.33333C20 6.06971 19.403 6.66667 18.6667 6.66667C17.9303 6.66667 17.3333 6.06971 17.3333 5.33333V4C17.3333 3.64638 17.1929 3.30724 16.9428 3.05719C16.6928 2.80714 16.3536 2.66667 16 2.66667H4Z" fill="#ACB6BF"/>
</svg>
