<svg width="14" height="14" viewBox="0 0 14 14" fill="none" xmlns="http://www.w3.org/2000/svg">
    <path fill-rule="evenodd" clip-rule="evenodd" d="M11.3746 12.3333H2.62586C2.15497 12.3333 1.80725 11.8687 1.98485 11.4413C2.8089 9.46532 4.74483 8.33333 6.9999 8.33333C9.25565 8.33333 11.1916 9.46532 12.0156 11.4413C12.1932 11.8687 11.8455 12.3333 11.3746 12.3333ZM4.27803 4.33333C4.27803 2.86266 5.49947 1.66666 6.9999 1.66666C8.50101 1.66666 9.72177 2.86266 9.72177 4.33333C9.72177 5.804 8.50101 7 6.9999 7C5.49947 7 4.27803 5.804 4.27803 4.33333ZM13.6365 12.0907C13.1418 9.85132 11.5944 8.19865 9.55778 7.44865C10.637 6.59731 11.2664 5.22063 11.0351 3.71329C10.767 1.96463 9.28219 0.565323 7.48984 0.361323C5.01566 0.079323 2.91709 1.966 2.91709 4.33333C2.91709 5.59333 3.51319 6.71598 4.44271 7.44865C2.40538 8.19865 0.85868 9.85132 0.3633 12.0907C0.183656 12.9047 0.853238 13.6667 1.70314 13.6667H12.2967C13.1472 13.6667 13.8168 12.9047 13.6365 12.0907Z" fill="#ACB6BF"/>
    <path fill-rule="evenodd" clip-rule="evenodd" d="M0.3633 12.0907C0.829658 9.98252 2.22775 8.39431 4.08978 7.5897C4.20566 7.53963 4.32335 7.49259 4.44271 7.44865C4.34353 7.37047 4.24814 7.28786 4.15688 7.20112C3.39276 6.47485 2.91709 5.45889 2.91709 4.33333C2.91709 1.966 5.01566 0.079323 7.48984 0.361323C9.28219 0.565323 10.767 1.96463 11.0351 3.71329C11.2452 5.08218 10.7454 6.34332 9.84344 7.20108C9.75223 7.28783 9.6569 7.37045 9.55778 7.44865C9.6771 7.49259 9.79474 7.53963 9.91059 7.5897C11.7721 8.39431 13.1708 9.98252 13.6365 12.0907C13.8168 12.9047 13.1472 13.6667 12.2967 13.6667H1.70314C0.853238 13.6667 0.183656 12.9047 0.3633 12.0907ZM13.9619 12.0186C14.1934 13.0637 13.3362 14 12.2967 14H1.70313C0.664081 14 -0.192745 13.0636 0.0378242 12.0188C0.517347 9.85116 1.9359 8.20487 3.82522 7.34251C3.05839 6.56469 2.58379 5.50444 2.58379 4.33333C2.58379 1.76158 4.86102 -0.273793 7.52752 0.0301277C9.46421 0.250556 11.0729 1.76042 11.3645 3.66277C11.5842 5.09408 11.0865 6.41743 10.175 7.34247C12.0639 8.20477 13.483 9.85084 13.9619 12.0186ZM2.62585 12H11.3746C11.6413 12 11.7816 11.747 11.7079 11.5694C10.9436 9.73691 9.14315 8.66666 6.9999 8.66666C4.85737 8.66666 3.05693 9.73686 2.29259 11.5693C2.21883 11.747 2.35913 12 2.62585 12ZM1.98485 11.4413C2.8089 9.46532 4.74483 8.33333 6.9999 8.33333C9.25565 8.33333 11.1916 9.46532 12.0156 11.4413C12.1932 11.8687 11.8455 12.3333 11.3746 12.3333H2.62586C2.15497 12.3333 1.80725 11.8687 1.98485 11.4413ZM6.9999 2C5.67699 2 4.61133 3.05325 4.61133 4.33333C4.61133 5.61341 5.67699 6.66666 6.9999 6.66666C8.32343 6.66666 9.38846 5.61347 9.38846 4.33333C9.38846 3.05319 8.32343 2 6.9999 2ZM6.9999 1.66666C5.49947 1.66666 4.27803 2.86266 4.27803 4.33333C4.27803 5.804 5.49947 7 6.9999 7C8.50101 7 9.72177 5.804 9.72177 4.33333C9.72177 2.86266 8.50101 1.66666 6.9999 1.66666Z" fill="#ACB6BF"/>
</svg>
