<svg width="20" height="20" viewBox="0 0 20 20" fill="none" xmlns="http://www.w3.org/2000/svg">
    <path fill-rule="evenodd" clip-rule="evenodd" d="M0.549175 0.549175C1.28141 -0.183058 2.46859 -0.183058 3.20083 0.549175L10 7.34835L16.7992 0.549175C17.5314 -0.183058 18.7186 -0.183058 19.4508 0.549175C20.1831 1.28141 20.1831 2.46859 19.4508 3.20083L12.6517 10L19.4508 16.7992C20.1831 17.5314 20.1831 18.7186 19.4508 19.4508C18.7186 20.1831 17.5314 20.1831 16.7992 19.4508L10 12.6517L3.20083 19.4508C2.46859 20.1831 1.28141 20.1831 0.549175 19.4508C-0.183058 18.7186 -0.183058 17.5314 0.549175 16.7992L7.34835 10L0.549175 3.20083C-0.183058 2.46859 -0.183058 1.28141 0.549175 0.549175Z" fill="#FF0000"/>
</svg>
