<svg width="20" height="15" viewBox="0 0 20 15" fill="none" xmlns="http://www.w3.org/2000/svg">
    <path fill-rule="evenodd" clip-rule="evenodd" d="M13.7914 12.8079L15.398 14.4147L16.8123 13.0006L15.5826 11.7707C17.0422 10.7183 18.227 9.2927 19.0081 7.63385L19.2087 7.20782L19.0081 6.78178C17.3221 3.20147 13.756 0.707764 9.60437 0.707764C8.11409 0.707764 6.69924 1.02909 5.41972 1.60667L3.81331 7.96785e-05L2.39902 1.41421L3.62819 2.64352C2.16765 3.69604 0.982144 5.12217 0.200622 6.78178L0 7.20782L0.200622 7.63385C1.88662 11.2142 5.45276 13.7079 9.60437 13.7079C11.0956 13.7079 12.5113 13.3861 13.7914 12.8079ZM14.1455 10.3334C15.32 9.55449 16.2988 8.48084 16.984 7.20781C15.532 4.5101 12.7614 2.70776 9.60437 2.70776C8.68204 2.70776 7.79267 2.8616 6.95954 3.14666L14.1455 10.3334ZM5.06531 4.08081L12.2518 11.2681C11.4179 11.5537 10.5277 11.7079 9.60437 11.7079C6.44737 11.7079 3.67671 9.90553 2.22479 7.20781C2.91034 5.93403 3.8899 4.85987 5.06531 4.08081Z" fill="black" fill-opacity="0.5"/>
</svg>
