<svg width="21" height="26" viewBox="0 0 21 26" fill="none" xmlns="http://www.w3.org/2000/svg">
    <path fill-rule="evenodd" clip-rule="evenodd" d="M7.3417 0.346143C7.5605 0.124516 7.85724 0 8.16667 0H17.5C19.433 0 21 1.58736 21 3.54545V9.45455C21 10.1072 20.4777 10.6364 19.8333 10.6364C19.189 10.6364 18.6667 10.1072 18.6667 9.45455V3.54545C18.6667 2.89276 18.1443 2.36364 17.5 2.36364H9.33333V8.27273C9.33333 8.92542 8.81102 9.45455 8.16667 9.45455H2.33333V22.4545C2.33333 23.1073 2.85567 23.6364 3.5 23.6364H4.66667C5.31099 23.6364 5.83333 24.1655 5.83333 24.8182C5.83333 25.4709 5.31099 26 4.66667 26H3.5C1.56701 26 0 24.4127 0 22.4545V8.27273C0 7.95929 0.12292 7.65869 0.341705 7.43705L7.3417 0.346143ZM3.98324 7.09091H7V4.03498L3.98324 7.09091Z" fill="#F44336"/>
    <path d="M17.5076 15.5175V17.0445H20.1536V18.1175H17.5076V20.2222H16.1846V14.4445H20.5047V15.5175H17.5076Z" fill="#F44336"/>
    <path d="M9.4375 14.4445H12.0345C12.6552 14.4445 13.2023 14.5655 13.676 14.8076C14.1551 15.0442 14.5253 15.3799 14.7867 15.8146C15.0534 16.2493 15.1868 16.7556 15.1868 17.3333C15.1868 17.9111 15.0534 18.4174 14.7867 18.8521C14.5253 19.2868 14.1551 19.6252 13.676 19.8673C13.2023 20.1039 12.6552 20.2222 12.0345 20.2222H9.4375V14.4445ZM11.9692 19.1245C12.5408 19.1245 12.9954 18.9649 13.333 18.6457C13.676 18.3211 13.8475 17.8836 13.8475 17.3333C13.8475 16.7831 13.676 16.3484 13.333 16.0292C12.9954 15.7046 12.5408 15.5422 11.9692 15.5422H10.7605V19.1245H11.9692Z" fill="#F44336"/>
    <path d="M6.01063 14.4445C6.51697 14.4445 6.95524 14.5297 7.32547 14.7003C7.70113 14.8709 7.98969 15.113 8.19113 15.4267C8.39258 15.7403 8.4933 16.1118 8.4933 16.541C8.4933 16.9647 8.39258 17.3361 8.19113 17.6553C7.98969 17.9689 7.70113 18.211 7.32547 18.3816C6.95524 18.5467 6.51697 18.6292 6.01063 18.6292H4.85913V20.2222H3.53613V14.4445H6.01063ZM5.93713 17.5397C6.33458 17.5397 6.63674 17.4544 6.84363 17.2838C7.05052 17.1077 7.15397 16.8601 7.15397 16.541C7.15397 16.2163 7.05052 15.9687 6.84363 15.7981C6.63674 15.622 6.33458 15.534 5.93713 15.534H4.85913V17.5397H5.93713Z" fill="#F44336"/>
</svg>
