<svg width="21" height="13" viewBox="0 0 21 13" fill="none" xmlns="http://www.w3.org/2000/svg">
    <path d="M2 6.49993L1.0953 6.07388L0.894663 6.49993L1.0953 6.92597L2 6.49993ZM18.998 6.49993L19.9027 6.92598L20.1033 6.49993L19.9027 6.07389L18.998 6.49993ZM2.9047 6.92597C4.28557 3.99372 7.17859 2 10.499 2V0C6.34742 0 2.78132 2.49365 1.0953 6.07388L2.9047 6.92597ZM10.499 2C13.8194 2 16.7124 3.99372 18.0933 6.92598L19.9027 6.07389C18.2167 2.49365 14.6506 0 10.499 0V2ZM18.0933 6.07389C16.7124 9.00614 13.8194 10.9999 10.499 10.9999V12.9999C14.6506 12.9999 18.2167 10.5062 19.9027 6.92598L18.0933 6.07389ZM10.499 10.9999C7.17859 10.9999 4.28557 9.00614 2.9047 6.07388L1.0953 6.92597C2.78132 10.5062 6.34743 12.9999 10.499 12.9999V10.9999Z" fill="#6F7071"/>
    <circle cx="10.502" cy="6.5" r="2.5" stroke="#6F7071" stroke-width="2"/>
</svg>
