<svg width="21" height="26" viewBox="0 0 21 26" fill="none" xmlns="http://www.w3.org/2000/svg">
    <path fill-rule="evenodd" clip-rule="evenodd" d="M7.3417 0.346143C7.5605 0.124516 7.85724 0 8.16667 0H17.5C19.433 0 21 1.58736 21 3.54545V9.45455C21 10.1072 20.4777 10.6364 19.8333 10.6364C19.189 10.6364 18.6667 10.1072 18.6667 9.45455V3.54545C18.6667 2.89276 18.1443 2.36364 17.5 2.36364H9.33333V8.27273C9.33333 8.92542 8.81102 9.45455 8.16667 9.45455H2.33333V22.4545C2.33333 23.1073 2.85567 23.6364 3.5 23.6364H4.66667C5.31099 23.6364 5.83333 24.1655 5.83333 24.8182C5.83333 25.4709 5.31099 26 4.66667 26H3.5C1.56701 26 0 24.4127 0 22.4545V8.27273C0 7.95929 0.12292 7.65869 0.341705 7.43705L7.3417 0.346143ZM3.98324 7.09091H7V4.03498L3.98324 7.09091Z" fill="#4CAF50"/>
    <path d="M18.0004 20.3212C17.5485 20.3212 17.1102 20.2607 16.6855 20.1396C16.2663 20.0131 15.9287 19.8507 15.6729 19.6526L16.122 18.6457C16.367 18.8272 16.6583 18.9731 16.9959 19.0831C17.3334 19.1932 17.671 19.2482 18.0085 19.2482C18.3842 19.2482 18.6619 19.1932 18.8415 19.0831C19.0212 18.9676 19.111 18.8162 19.111 18.6291C19.111 18.4916 19.0566 18.3788 18.9477 18.2907C18.8442 18.1972 18.7081 18.1229 18.5394 18.0679C18.376 18.0129 18.1528 17.9523 17.8697 17.8863C17.4341 17.7817 17.0775 17.6772 16.7999 17.5726C16.5222 17.4681 16.2826 17.3003 16.0812 17.0691C15.8852 16.838 15.7872 16.5299 15.7872 16.1447C15.7872 15.809 15.877 15.5064 16.0567 15.2368C16.2364 14.9616 16.5059 14.7443 16.8652 14.5847C17.23 14.4251 17.6737 14.3453 18.1964 14.3453C18.5611 14.3453 18.9177 14.3894 19.2662 14.4774C19.6146 14.5654 19.9195 14.692 20.1809 14.8571L19.7725 15.8723C19.2444 15.5697 18.7163 15.4184 18.1882 15.4184C17.818 15.4184 17.543 15.4789 17.3634 15.5999C17.1891 15.721 17.102 15.8806 17.102 16.0787C17.102 16.2768 17.2027 16.4253 17.4042 16.5244C17.6111 16.6179 17.9241 16.7115 18.3434 16.805C18.7789 16.9096 19.1355 17.0141 19.4132 17.1187C19.6909 17.2232 19.9277 17.3883 20.1237 17.6139C20.3251 17.8395 20.4259 18.1449 20.4259 18.5301C20.4259 18.8603 20.3333 19.1629 20.1482 19.438C19.9685 19.7077 19.6963 19.9223 19.3315 20.0818C18.9667 20.2414 18.523 20.3212 18.0004 20.3212Z" fill="#4CAF50"/>
    <path d="M11.2246 14.4443H12.5476V19.1326H15.4141V20.2221H11.2246V14.4443Z" fill="#4CAF50"/>
    <path d="M9.17964 20.2222L7.79947 18.2165L6.4438 20.2222H4.9248L7.03997 17.2838L5.03097 14.4445H6.53364L7.84847 16.3181L9.1388 14.4445H10.568L8.5753 17.2343L10.7068 20.2222H9.17964Z" fill="#4CAF50"/>
</svg>
