<svg width="19" height="19" viewBox="0 0 19 19" fill="none" xmlns="http://www.w3.org/2000/svg">
    <path fill-rule="evenodd" clip-rule="evenodd" d="M9.5 0C4.25329 0 0 4.25329 0 9.5C0 14.7467 4.25329 19 9.5 19C14.7467 19 19 14.7467 19 9.5C19 4.25329 14.7467 0 9.5 0ZM5.80605 6.33332C5.70986 6.33332 5.61967 6.35906 5.542 6.40402C5.56011 6.4145 5.57779 6.42616 5.59494 6.43902L8.86729 8.89326C9.24264 9.17476 9.75868 9.17476 10.134 8.89326L13.4064 6.439C13.4235 6.42614 13.4412 6.41448 13.4593 6.40401C13.3816 6.35906 13.2914 6.33332 13.1952 6.33332H5.80605ZM5.27825 12.1391V7.521L8.23394 9.73775C8.98461 10.3007 10.0167 10.3007 10.7674 9.73775L10.7674 9.73774L13.723 7.52099V12.1391C13.723 12.4306 13.4867 12.6669 13.1952 12.6669H5.80605C5.51456 12.6669 5.27825 12.4306 5.27825 12.1391ZM4.22266 6.86112C4.22266 5.98663 4.93157 5.27772 5.80605 5.27772H13.1952C14.0697 5.27772 14.7786 5.98663 14.7786 6.86112V12.1391C14.7786 13.0136 14.0697 13.7225 13.1952 13.7225H5.80605C4.93157 13.7225 4.22266 13.0136 4.22266 12.1391V6.86112Z" fill="black"/>
</svg>
