<svg width="19" height="19" viewBox="0 0 19 19" fill="none" xmlns="http://www.w3.org/2000/svg">
    <path fill-rule="evenodd" clip-rule="evenodd" d="M19 9.5C19 14.7467 14.7467 19 9.5 19C4.25329 19 0 14.7467 0 9.5C0 4.25329 4.25329 0 9.5 0C14.7467 0 19 4.25329 19 9.5ZM9.84042 7.01332C8.91646 7.39765 7.0697 8.19312 4.30026 9.3997C3.85055 9.57853 3.61497 9.75349 3.59353 9.92457C3.55728 10.2137 3.91933 10.3275 4.41235 10.4825C4.47941 10.5037 4.5489 10.5255 4.62013 10.5486C5.10519 10.7063 5.75767 10.8908 6.09687 10.8981C6.40455 10.9047 6.74797 10.7779 7.12711 10.5175C9.7147 8.77087 11.0504 7.88802 11.1342 7.86898C11.1935 7.85556 11.2754 7.83867 11.331 7.88805C11.3865 7.93741 11.3811 8.0309 11.3751 8.056C11.3393 8.20887 9.91808 9.53016 9.18262 10.2139C8.95335 10.427 8.79075 10.5782 8.7575 10.6128C8.683 10.6902 8.60708 10.7633 8.53417 10.8336C8.08355 11.268 7.74561 11.5938 8.55285 12.1258C8.94085 12.3814 9.25126 12.5928 9.56096 12.8037C9.89916 13.0341 10.2365 13.2638 10.6729 13.5499C10.7842 13.6228 10.8903 13.6985 10.9938 13.7722C11.3874 14.0529 11.741 14.3049 12.1779 14.2647C12.4318 14.2414 12.694 14.0027 12.8271 13.2908C13.1418 11.6084 13.7604 7.96298 13.9034 6.46078C13.916 6.32916 13.9002 6.16073 13.8876 6.08679C13.8749 6.01285 13.8485 5.9075 13.7524 5.82952C13.6385 5.73716 13.4628 5.71769 13.3842 5.71906C13.0269 5.72537 12.4787 5.91598 9.84042 7.01332Z" fill="black"/>
</svg>
