<svg width="19" height="19" viewBox="0 0 19 19" fill="none" xmlns="http://www.w3.org/2000/svg">
    <path fill-rule="evenodd" clip-rule="evenodd" d="M9.5 0C14.7467 0 19 4.25329 19 9.5C19 14.7467 14.7467 19 9.5 19C4.25329 19 0 14.7467 0 9.5C0 4.25329 4.25329 0 9.5 0ZM14.6639 6.32573C15.0461 6.32573 15.1263 6.51029 15.046 6.76147C14.8854 7.45216 13.3458 9.48661 13.3458 9.48661C13.2119 9.68752 13.1584 9.788 13.3458 10.014C13.4118 10.1007 13.5526 10.2301 13.7138 10.3782C13.8795 10.5304 14.0667 10.7025 14.216 10.868C14.7588 11.4409 15.1679 11.9241 15.2819 12.2572C15.386 12.5913 15.2055 12.7607 14.8444 12.7607H13.5808C13.2423 12.7607 13.0719 12.5828 12.7036 12.1985C12.5475 12.0356 12.3559 11.8356 12.1008 11.5964C11.3511 10.9182 11.0298 10.8303 10.8424 10.8303C10.588 10.8303 10.5119 10.8979 10.5119 11.2366V12.2996C10.5119 12.5913 10.4126 12.7607 9.60931 12.7607C8.27057 12.7607 6.79936 11.9982 5.75515 10.5917C4.18883 8.53217 3.76042 6.97494 3.76042 6.66097C3.76042 6.48516 3.83263 6.32573 4.19369 6.32573H5.45732C5.78028 6.32573 5.90176 6.45831 6.02288 6.78656C6.6409 8.47537 7.68295 9.95127 8.11133 9.95127C8.27198 9.95127 8.34567 9.88188 8.34567 9.49916V7.75355C8.31667 7.25666 8.13163 7.04177 7.99457 6.88261C7.90993 6.78432 7.84359 6.70728 7.84359 6.5982C7.84359 6.46562 7.96436 6.32573 8.16513 6.32573H10.1509C10.4187 6.32573 10.5119 6.46006 10.5119 6.76147V9.10985C10.5119 9.361 10.6282 9.4489 10.7085 9.4489C10.8691 9.4489 11.003 9.361 11.2975 9.08474C12.2079 8.13029 12.8505 6.66097 12.8505 6.66097C12.9308 6.48516 13.0789 6.32573 13.4003 6.32573H14.6639Z" fill="black"/>
</svg>
