<svg width="18" height="20" viewBox="0 0 18 20" fill="none" xmlns="http://www.w3.org/2000/svg">
    <path d="M9 0C4.02 0 0 4.1875 0 9.375C0 11.5 0.66 13.5 1.92 15.125L0.66 19.125C0.6 19.375 0.66 19.625 0.84 19.8125C0.9 19.9375 1.08 20 1.2 20C1.26 20 1.38 20 1.44 19.9375L5.58 18C6.66 18.5 7.8 18.75 9 18.75C13.98 18.75 18 14.5625 18 9.375C18 4.1875 13.98 0 9 0ZM14.22 12.8125C13.98 13.5625 13.08 14.1875 12.3 14.3125C12.12 14.375 11.94 14.375 11.7 14.375C11.22 14.375 10.5 14.25 9.24 13.6875C7.8 13.0625 6.36 11.75 5.22 10.0625V10C4.86 9.4375 4.2 8.375 4.2 7.25C4.2 5.875 4.86 5.1875 5.1 4.875C5.4 4.5625 5.82 4.375 6.3 4.375C6.42 4.375 6.48 4.375 6.6 4.375C7.02 4.375 7.32 4.5 7.62 5.125L7.86 5.625C8.04 6.125 8.28 6.6875 8.34 6.75C8.52 7.125 8.52 7.4375 8.34 7.75C8.28 7.9375 8.16 8.0625 8.04 8.1875C7.98 8.3125 7.92 8.375 7.86 8.375C7.8 8.4375 7.8 8.4375 7.74 8.5C7.92 8.8125 8.28 9.375 8.76 9.8125C9.48 10.5 10.02 10.6875 10.32 10.8125C10.44 10.6875 10.56 10.4375 10.74 10.25L10.8 10.125C11.1 9.6875 11.58 9.5625 12.06 9.75C12.3 9.875 13.62 10.5 13.62 10.5L13.74 10.5625C13.92 10.6875 14.16 10.75 14.28 11C14.52 11.5625 14.34 12.375 14.22 12.8125Z" fill="black"/>
</svg>
